<?xml version="1.0" standalone="no"?>
<!DOCTYPE svg PUBLIC "-//W3C//DTD SVG 20010904//EN"
 "http://www.w3.org/TR/2001/REC-SVG-20010904/DTD/svg10.dtd">
<svg version="1.0" xmlns="http://www.w3.org/2000/svg"
 width="94.000000pt" height="94.000000pt" viewBox="0 0 94.000000 94.000000"
 preserveAspectRatio="xMidYMid meet">
<metadata>
Created by potrace 1.14, written by Peter Selinger 2001-2017
</metadata>
<g transform="translate(0.000000,94.000000) scale(0.100000,-0.100000)"
fill="#000000" stroke="none">
<path d="M200 920 c-29 -10 -60 -27 -68 -37 -15 -21 -12 -98 10 -203 15 -73
16 -202 3 -330 -14 -137 -9 -216 17 -268 34 -67 70 -82 177 -76 47 3 143 6
212 8 182 4 196 17 190 176 -6 164 -6 306 1 370 4 36 7 98 7 138 1 52 5 72 14
72 7 0 22 7 33 14 18 14 17 15 -16 13 -31 -2 -35 1 -38 25 -2 18 4 31 20 43
l23 17 -27 -5 c-19 -3 -28 0 -28 9 0 30 -62 42 -160 31 -25 -3 -65 -1 -90 4
-94 20 -221 19 -280 -1z"/>
</g>
</svg>
